<svg width="20" height="20" viewBox="0 0 20 20" fill="none" xmlns="http://www.w3.org/2000/svg">
<path d="M11.2123 6.21255C11.3884 6.04491 11.6227 5.95224 11.8659 5.95408C12.109 5.95592 12.3419 6.05213 12.5154 6.22241C12.6889 6.3927 12.7895 6.62373 12.7959 6.86677C12.8024 7.10981 12.7141 7.34584 12.5498 7.52505L7.56233 13.7626C7.47657 13.8549 7.37306 13.9291 7.258 13.9805C7.14293 14.032 7.01867 14.0597 6.89264 14.062C6.76662 14.0644 6.64142 14.0413 6.52453 13.9941C6.40763 13.9469 6.30145 13.8767 6.21233 13.7876L2.90483 10.4801C2.81272 10.3942 2.73884 10.2907 2.6876 10.1757C2.63636 10.0607 2.60881 9.93659 2.60659 9.81071C2.60437 9.68483 2.62753 9.55979 2.67468 9.44306C2.72183 9.32632 2.79201 9.22028 2.88103 9.13126C2.97006 9.04223 3.0761 8.97205 3.19283 8.9249C3.30957 8.87775 3.43461 8.85459 3.56048 8.85681C3.68636 8.85904 3.8105 8.88659 3.9255 8.93783C4.0405 8.98907 4.144 9.06295 4.22983 9.15505L6.84733 11.7713L11.1873 6.24005C11.1951 6.2304 11.2035 6.22122 11.2123 6.21255ZM10.0623 12.6376L11.2123 13.7876C11.3014 13.8765 11.4075 13.9466 11.5243 13.9936C11.6411 14.0407 11.7661 14.0637 11.892 14.0614C12.0179 14.059 12.142 14.0314 12.257 13.98C12.3719 13.9287 12.4753 13.8547 12.5611 13.7626L17.5511 7.52505C17.6407 7.43656 17.7116 7.3309 17.7595 7.2144C17.8074 7.0979 17.8313 6.97294 17.8299 6.84698C17.8284 6.72102 17.8016 6.59666 17.751 6.4813C17.7004 6.36595 17.627 6.26197 17.5353 6.17559C17.4437 6.08921 17.3355 6.02218 17.2174 5.97852C17.0992 5.93486 16.9735 5.91546 16.8476 5.92148C16.7218 5.9275 16.5985 5.95881 16.4851 6.01354C16.3716 6.06828 16.2703 6.14532 16.1873 6.24005L11.8461 11.7713L11.2398 11.1638L10.0611 12.6376H10.0623Z" fill="#1FB0A8"/>
</svg>
