<?xml version="1.0" encoding="utf-8"?>
<!-- Generator: Adobe Illustrator 24.0.1, SVG Export Plug-In . SVG Version: 6.00 Build 0)  -->
<svg version="1.1" id="レイヤー_1" xmlns="http://www.w3.org/2000/svg" xmlns:xlink="http://www.w3.org/1999/xlink" x="0px"
	 y="0px" viewBox="0 0 3599.5 450.1" style="enable-background:new 0 0 3599.5 450.1;" xml:space="preserve">
<style type="text/css">
	.st0{fill:url(#SVGID_1_);}
	.st1{fill:url(#SVGID_2_);}
	.st2{fill:url(#SVGID_3_);}
	.st3{fill:#333333;}
</style>
<g>
	<g>
		
			<linearGradient id="SVGID_1_" gradientUnits="userSpaceOnUse" x1="0" y1="174.5" x2="330.9" y2="174.5" gradientTransform="matrix(1 0 0 -1 0 452)">
			<stop  offset="0" style="stop-color:#81A544"/>
			<stop  offset="0.9944" style="stop-color:#487200"/>
		</linearGradient>
		<path class="st0" d="M127,104.9v47.7C79,172,45.1,219.1,45.1,274c0,72.2,58.8,131,131,131c46.3,0,87-24.1,110.3-60.4l44.5,13.3
			c-29.9,54.9-88,92.2-154.8,92.2C79,450.1,0,371.1,0,274C0,194,53.7,126.2,127,104.9z"/>
		
			<linearGradient id="SVGID_2_" gradientUnits="userSpaceOnUse" x1="160.3" y1="259.65" x2="414.2664" y2="259.65" gradientTransform="matrix(1 0 0 -1 0 452)">
			<stop  offset="0" style="stop-color:#81A544"/>
			<stop  offset="0.9944" style="stop-color:#487200"/>
		</linearGradient>
		<path class="st1" d="M196.2,301.9c-9.8,0-21.6-3.5-27.5-10.5c-7.1-7.1-8.4-17.8-8.4-28.5V39c0-21.4,12.5-39,34-39h-0.1
			c21.4,0,34,17.5,34,39v199.6h93.6c10.1,0,19.5,4.8,25.5,12.9l60.8,82.7c10.4,14.1,7.3,33.9-6.7,44.3c-5.7,4.2-12.2,6.2-18.8,6.2
			c-9.7,0-19.3-4.5-25.5-12.9l-51.3-69.7H196.2V301.9z"/>
	</g>
	
		<linearGradient id="SVGID_3_" gradientUnits="userSpaceOnUse" x1="174.6" y1="316.0452" x2="349.7447" y2="316.0452" gradientTransform="matrix(1 0 0 -1 0 452)">
		<stop  offset="0" style="stop-color:#81A544"/>
		<stop  offset="0.9944" style="stop-color:#487200"/>
	</linearGradient>
	<path class="st2" d="M174.6,147.4l125.9-63.6c17.5-8.8,37-5.8,45.9,11.7l-0.1-0.1c8.9,17.5-0.3,35.1-17.8,43.9l-106,53.6"/>
</g>
<g>
	<path class="st3" d="M704.4,383.8H696c-12.7,0-18.9-6.2-18.9-25.8s6.2-26,18.9-26h4.3c18.3,0,29.8-9.9,29.8-28.3
		c0-16.1-12.4-29.2-30.7-29.2h-50.6v49.7c0,37.6-21.4,59.6-56.8,59.6h-22c-34.8,0-64-28.9-64-80.4c0-41.9,32.6-80.7,78.9-80.7h13
		v-36.9h-73.6c-12.4,0-18.6-6.2-18.6-25.5s6.2-25.8,18.6-25.8h73.6v-2.8c0-12.4,6.2-18.9,25.5-18.9c18.9,0,25.5,6.5,25.5,18.9v91
		h50.6c43.5,0,82.6,37.6,82.6,80.7C782,352.8,751.6,383.8,704.4,383.8z M601,274.5h-17.4c-18.6,0-28.6,13.4-28.6,30.1
		c0,22.4,10.2,29.2,24.5,29.2c15.8,0,21.4-10.2,21.4-21.7L601,274.5L601,274.5z M756.6,209c-18.6,0-24.5-5.9-24.5-17.7
		c0-14.6-6.5-24.8-25.5-24.8H696c-12.4,0-18.6-6.2-18.6-25.5s6.2-25.8,18.6-25.8h7.8c59,0,77.3,26.4,77.3,76.1
		C781.1,203.1,774.9,209,756.6,209z"/>
	<path class="st3" d="M1069.5,184.5h-26.4v185c0,12.4-6.5,18.6-25.8,18.6c-19.6,0-25.8-6.2-25.8-18.6v-4h-81.7
		c-45.3,0-81.7-34.8-81.7-79.8c0-45.6,36.3-80.1,81.7-80.1h81.7v-21.1H830.8c-12.4,0-18.6-6.2-18.6-25.5s6.2-25.8,18.6-25.8h160.8
		v-1.6c0-12.4,6.2-18.9,25.8-18.9c19.2,0,25.8,6.5,25.8,18.9v1.6h26.4c12.4,0,18.9,6.5,18.9,25.8S1081.9,184.5,1069.5,184.5z
		 M991.6,256.8h-81.7c-16.8,0-30.1,11.8-30.1,28.9s13.3,28.6,30.1,28.6h81.7V256.8z"/>
	<path class="st3" d="M1373.8,184.5h-26.4v185c0,12.4-6.5,18.6-25.8,18.6c-19.6,0-25.8-6.2-25.8-18.6v-4h-81.7
		c-45.3,0-81.7-34.8-81.7-79.8c0-45.6,36.3-80.1,81.7-80.1h81.7v-21.1H1135c-12.4,0-18.6-6.2-18.6-25.5s6.2-25.8,18.6-25.8h160.8
		v-1.6c0-12.4,6.2-18.9,25.8-18.9c19.2,0,25.8,6.5,25.8,18.9v1.6h26.4c12.4,0,18.9,6.5,18.9,25.8S1386.2,184.5,1373.8,184.5z
		 M1295.9,256.8h-81.7c-16.8,0-30.1,11.8-30.1,28.9s13.3,28.6,30.1,28.6h81.7V256.8z"/>
	<path class="st3" d="M1614.1,386c-12.4,0-18.9-6.2-18.9-25.5c0-18.3,6.5-25.8,16.1-25.8c18.3,0,35.4-18.3,35.4-42.8v-36.3
		c0-17.1-6.2-30.4-16.1-39.4l-42.2,108.4c-15.5,40.1-36.3,61.5-89.4,61.5c-45,0-81-36.3-81-93.1v-40.1c0-36,14.6-63.6,37.6-81.3V134
		c0-11.5,5.9-17.4,23.6-17.4s23.6,5.9,23.6,17.4v17.4c7.5-1.2,14.9-1.9,22.7-1.9h63.3c4.7,0,9,0.3,13.3,0.9v-16.1
		c0-11.8,5.9-17.7,23.6-17.7s23.9,5.9,23.9,17.7v32.9c27.3,18,46,48.7,46,86.6V292C1695.5,346.3,1665,386,1614.1,386z M1532.5,201
		c-5.3,0-10.2,0.3-14.9,0.9l26.7,69.5c0.9,2.5,1.6,4.7,1.6,6.8c0,11.5-19.9,19.9-29.8,19.9c-6.5,0-10.2-3.4-12.7-9.9l-25.8-66.1
		c-7.1,9-10.6,19.9-10.6,31.7v40.1c0,25.1,14,42.5,36.6,42.5c21.1,0,33.5-12.4,41-31.7l40.1-103.7L1532.5,201L1532.5,201z"/>
	<path class="st3" d="M1983.3,220.2c-25.5,0-99-50.6-118.9-71.1c-0.6-1.2-2.2-1.2-3.4-1.2c-1.2,0-2.5,0-3.7,1.2
		c-19.6,20.5-93.1,71.1-118.6,71.1c-12.4,0-21.1-13-21.1-24.8c0-9.6,5.6-17.4,12.4-19.2c42.8-13.7,79.8-36.3,102.1-60.5
		c5.9-6.5,14.9-12.4,28.9-12.4s23,5.9,28.9,12.4c22.4,24.2,59.3,46.9,102.1,60.5c6.5,1.9,12.1,9.3,12.1,18.9
		C2004.1,206.9,1995.7,220.2,1983.3,220.2z M1767.5,384.1c-2.8,2.8-7.1,4.3-12.1,4.3c-11.8,0-25.5-9.6-25.5-22.7
		c0-20.8,44.1-29.8,44.1-99.4v-41c0-8.7,8.7-18,22.7-18c13.4,0,22.4,9.3,22.4,18v41C1819,311.5,1803.8,350,1767.5,384.1z
		 M1924.3,393.8c-14,0-22.7-9-22.7-17.7V225.5c0-8.7,8.7-18,22.7-18c13.7,0,22.4,9.3,22.4,18v150.6
		C1946.6,384.8,1937.9,393.8,1924.3,393.8z"/>
	<path class="st3" d="M2128,192h-87c-6.8,0-14.3-7.1-14.3-17.7c0-10.9,7.5-18,14.3-18h86.9c6.5,0,14,7.1,14,18
		C2141.9,184.8,2134.5,192,2128,192z M2302.7,149.7h-18.3c0,10.9-8.4,15.5-19.6,15.5h-0.9c2.2,2.5,3.7,5.9,3.4,9l-0.3,3.4h38.2
		c4,0,7.8,4,7.8,10.2s-3.7,10.2-7.8,10.2h-39.4v12h32c4,0,7.8,3.7,7.8,9.6c0,6.2-3.7,9.9-7.8,9.9h-32v11.8h32c4,0,7.8,3.7,7.8,9.6
		c0,6.2-3.7,9.9-7.8,9.9h-32v11.5h39.4c4,0,7.8,4.3,7.8,10.6c0,6.2-3.7,10.2-7.8,10.2H2176c-12.4,0-22.4-10.2-22.4-23.3v-41.6
		c-1.9,1.2-4,1.9-6.2,1.9c-4.7,0-9.6-3.1-12.4-8.7c0,7.8-6.2,13-11.5,13H2045c-5.3,0-11.5-5.9-11.5-14.6c0-8.4,6.2-14.6,11.5-14.6
		h78.5c3.1,0,6.2,1.9,8.4,5c0-5.6,2.2-10.2,5.9-13c8.4-7.1,19.6-21.1,23.9-30.7c1.9-4.3,6.8-7.5,13.4-7.5c-1.9-2.5-3.4-5.6-3.4-9.3
		h-20.2c-5.6,0-11.5-5.6-11.5-14.3c0-8.4,5.9-14,11.5-14h20.2v-2.2c0-7.1,7.8-15.2,19.6-15.2s19.6,8.1,19.6,15.2v2.2h34.2v-1.9
		c0-7.5,7.8-15.8,19.9-15.8c11.8,0,19.6,8.4,19.6,15.8v1.9h18.3c5.6,0,11.5,5.6,11.5,14C2314.2,144.1,2308.3,149.7,2302.7,149.7z
		 M2123.3,142.9h-77.9c-5.6,0-11.8-5.9-11.8-14.9c0-8.7,6.2-14.6,11.8-14.6h77.9c5.9,0,11.8,5.9,11.8,14.6
		C2135.1,137,2129.2,142.9,2123.3,142.9z M2123.6,277.6h-78.5c-5.3,0-11.5-5.9-11.5-14.6s6.2-14.6,11.5-14.6h78.5
		c5.6,0,11.5,5.9,11.5,14.6S2129.2,277.6,2123.6,277.6z M2109,384.4h-49.4c-12.4,0-22.4-9.6-22.4-22.4v-48.4
		c0-12.4,9.9-22.4,22.4-22.4h49.4c12.7,0,22.4,9.9,22.4,22.4V362C2131.4,374.8,2121.7,384.4,2109,384.4z M2100.9,326.4
		c0-2.5-2.2-5-5-5h-21.4c-3.1,0-5.3,2.5-5.3,5v22.4c0,3.1,2.2,5.3,5.3,5.3h21.4c2.8,0,5-2.2,5-5.3V326.4z M2300,387.6
		c-21.4,0-47.2-5.6-67.7-11.2c-20.2,5.6-46.6,11.5-79.8,11.5c-8.4,0-16.1-8.7-16.1-16.8c0-6.2,4.7-10.6,9.3-10.6
		c15.2,0,28.6-0.9,39.7-2.2c-8.1-4-24.5-11.2-24.5-21.4c0-2.2,0.3-4.7,1.6-6.8l1.9-2.8h-12.1c-5,0-9.6-4.7-9.6-11.8
		s4.7-12.1,9.6-12.1H2283c10.2,0,19.2,7.1,19.2,16.5c0,6.8-4.3,22.7-26.7,37.6c9.6,1.6,19.9,2.8,31.4,2.8c4.3,0,9.6,4.7,9.6,10.6
		C2316.4,378.5,2307.7,387.6,2300,387.6z M2258.4,327.3h-72.7c15.5,9,31,16.1,49.4,21.7c5-1.9,26.7-11.5,26.7-18.9
		C2261.8,328.6,2260.2,327.3,2258.4,327.3z M2245,149.7h-34.2c0,10.6-8.4,15.5-19.6,15.5h-2.2c2.5,2.8,4,6.2,4,9.6
		c0,0.6-0.3,1.9-0.6,2.8h37.3l0.6-4.3c0.9-6.5,8.1-13.7,18.6-13.7C2246.6,157.2,2245,153.8,2245,149.7z M2230.7,198.2H2195
		c-3.1,0-5.3,2.5-5.3,5.3v6.5h41V198.2z M2230.7,229.5h-41v11.8h41V229.5z M2230.7,260.9h-41v6.2c0,3.1,2.2,5.3,5.3,5.3h35.7V260.9z
		"/>
	<path class="st3" d="M2611.1,303.1h-32c1.6,1.2,2.8,2.5,3.4,4.3l27.9,59.9c0.6,1.9,1.2,3.7,1.2,5.6c0,12.4-12.7,20.5-23.6,20.5
		c-7.8,0-14-3.7-16.5-9l-7.5-15.5c-41.6,14.9-86.6,15.8-172.9,15.8h-38.8c-7.5,0-15.5-7.8-15.5-19.9c0-11.8,8.1-19.6,15.5-19.6h22.4
		l13.7-42.2h-36.6c-7.1,0-14.9-7.5-14.9-18.9c0-11.2,7.8-18.6,14.9-18.6H2611c7.1,0,14.9,7.5,14.9,18.6
		C2626,295.7,2618.2,303.1,2611.1,303.1z M2604.5,210.3l-3.7-0.6c1.2,2.8,1.9,5.6,1.9,9c0,11.2-7.8,18.6-14.9,18.6H2376
		c-7.1,0-14.9-7.5-14.9-18.6c0-3.7,0.9-6.8,2.2-9.6l-4.7,0.9c-11.8,0-20.5-13-20.5-24.2c0-9.3,5.9-16.8,12.7-18.3
		c39.4-9.3,75.4-28.6,101.8-52.8c6.2-5.6,15.2-11.5,28.9-11.5s22.7,6.2,28.6,12.1c23,23.3,60.9,42.5,101.8,52.5
		c6.8,1.6,12.7,9,12.7,18.3C2624.7,196.9,2616,210.3,2604.5,210.3z M2485.3,148.8c-0.9-0.9-2.2-1.2-3.7-1.2c-1.2,0-2.5,0.3-3.7,1.2
		c-19.9,18.9-50,38.2-85.7,51.2h177C2533.4,186.7,2503.6,166.8,2485.3,148.8z M2435,303.1l-13.7,41.9c54,0,93.5-2.8,126.7-10.6
		l-5.3-10.9c-0.9-1.9-1.2-3.7-1.2-5.6c0-5.3,2.8-10.9,8.1-14.9H2435V303.1z"/>
	<path class="st3" d="M2760.4,310.2c-2.8,0-5.9-1.2-8.1-3.1l-20.2-18.9V377c0,7.8-8.4,16.8-21.1,16.8s-21.1-9-21.1-16.8v-72.3
		c-5.3,4.3-14.3,13-21.4,13c-12.1,0-20.5-12.4-20.5-23.3c0-6.5,3.1-12.4,7.1-15.2c50.6-35.4,66.1-75.4,66.1-95.6c0-2.8-1.9-5-4.7-5
		h-53.7c-7.5,0-15.8-8.1-15.8-19.9c0-11.5,8.4-19.6,15.8-19.6h26.4v-18.9c0-7.8,8.4-16.8,21.1-16.8c12.7,0,21.1,9,21.1,16.8v18.9h13
		c12.1,0,21.4,8.7,21.4,20.5c0,21.1-7.5,54.3-27.3,87.2l35.4,31c3.1,2.8,5,6.8,5,11.8C2779,299.4,2771.3,310.2,2760.4,310.2z
		 M2919.7,384.8h-134.4c-8.4,0-17.4-8.7-17.4-22s9-21.7,17.4-21.7h45.6V224.9h-38.8c-8.4,0-17.4-8.7-17.4-22c0-13,9-21.7,17.4-21.7
		h38.8v-60.5c0-8.1,8.7-17.1,21.7-17.1c12.7,0,21.4,9,21.4,17.1v60.5h39.1c8.4,0,17.1,8.7,17.1,21.7c0,13.4-8.7,22-17.1,22H2874V341
		h45.6c8.4,0,17.4,8.4,17.4,21.7S2928,384.8,2919.7,384.8z"/>
	<path class="st3" d="M2965.6,368.5v-46.9h48.7v46.9H2965.6z"/>
	<path class="st3" d="M3105.2,369.7c-43.7,0-62.6-23.1-62.6-64.8v-35c0-38.5,20.6-64.3,62.6-64.3h90.7v41h-82.5
		c-19.9,0-29.3,11.7-29.3,26.3V302c0,15.9,10.7,26.8,29.3,26.8h82.5v41h-90.7V369.7z"/>
	<path class="st3" d="M3303.9,368.7h-33.3c-43.2,0-59.9-21.6-59.9-61.1v-40c0-37.8,18.6-61.4,59.9-61.4h33.3
		c41,0,60.6,22.4,60.6,61.8v39C3364.5,348.6,3346.6,368.7,3303.9,368.7z M3323.8,272.4c0-15.9-9.9-23.8-26.3-23.8h-18.9
		c-19.9,0-26.6,10.2-26.6,22.9V304c0,12.7,7.9,22.4,26.6,22.4h18.9c16.4,0,26.3-6.7,26.3-23.3V272.4z"/>
	<path class="st3" d="M3558.3,369.5V266.7c0-9.9-8.2-19.1-18.6-19.1h-26.8v121h-39.5v-121H3447c-10.7,0-18.6,9.2-18.6,19.1v102.8
		h-41.5V259.2c0-27.8,20.6-52.7,53.2-52.7h106.6c32.3,0,52.9,24.8,52.9,52.7v110.3H3558.3z"/>
</g>
</svg>
