<svg width="30" height="30" viewBox="0 0 30 30" fill="none" xmlns="http://www.w3.org/2000/svg">
<g clip-path="url(#clip0_24_588)">
<path d="M28.5644 8.58387C27.3398 5.98817 25.4004 3.80848 22.957 2.27919C19.5586 0.158093 15.5332 -0.515735 11.6309 0.386609C7.72851 1.28309 4.40624 3.65028 2.28515 7.04872C0.158195 10.4472 -0.515633 14.4667 0.386711 18.3749C1.28905 22.2772 3.65624 25.5995 7.04882 27.7206C9.43945 29.2147 12.1816 30.0057 14.9883 30.0057H15.1699C17.9648 29.9706 20.6836 29.162 23.0391 27.6737C23.7246 27.2401 23.9238 26.3378 23.4902 25.6522C23.0566 24.9667 22.1543 24.7675 21.4687 25.2011C19.5762 26.4022 17.3848 27.0526 15.1348 27.0819C12.8262 27.1112 10.5703 26.4725 8.60155 25.2479C5.86523 23.537 3.96093 20.8651 3.24023 17.7245C2.51952 14.5839 3.05859 11.3495 4.76952 8.61317C8.29687 2.97059 15.7617 1.24794 21.4043 4.77528C23.373 6.00575 24.9316 7.7577 25.916 9.84364C26.8769 11.8768 27.2519 14.1327 27 16.3593C26.9121 17.162 27.4863 17.8886 28.2949 17.9765C29.0976 18.0643 29.8242 17.4901 29.9121 16.6815C30.2226 13.91 29.7539 11.1093 28.5644 8.58387Z" fill="#54AEA8"/>
<path d="M18.6474 9C19.1285 9 19.4512 9.45469 19.2579 9.86018L17.3481 13.8665C17.1548 14.272 17.4775 14.7267 17.9586 14.7267H18.8333C19.2015 14.7267 19.5 15.0014 19.5 15.3403V15.7858C19.5 16.1247 19.2015 16.3994 18.8333 16.3994H16.4419C16.1812 16.3994 15.9444 16.5393 15.8357 16.7574L15.6305 17.1696C15.5926 17.2456 15.573 17.3283 15.573 17.4119C15.573 17.7331 15.8559 17.9934 16.2049 17.9934H18.8332C19.2015 17.9934 19.5 18.2682 19.5 18.6071V19.0525C19.5 19.3914 19.2015 19.6662 18.8333 19.6662H16.2398C15.8715 19.6662 15.573 19.9409 15.573 20.2798V21.8864C15.573 22.2253 15.2745 22.5 14.9063 22.5H13.6147C13.2465 22.5 12.948 22.2253 12.948 21.8864V20.2798C12.948 19.9409 12.6495 19.6662 12.2812 19.6662H9.66675C9.29851 19.6662 9 19.3914 9 19.0525V18.6071C9 18.2682 9.29851 17.9934 9.66675 17.9934H12.3161C12.6651 17.9934 12.948 17.7331 12.948 17.4119C12.948 17.3283 12.9284 17.2456 12.8905 17.1696L12.6853 16.7574C12.5766 16.5393 12.3398 16.3994 12.0791 16.3994H9.66675C9.29851 16.3994 9 16.1247 9 15.7858V15.3403C9 15.0014 9.29851 14.7267 9.66675 14.7267H10.9792C11.4612 14.7267 11.7839 14.2706 11.589 13.8649L9.66598 9.86177C9.4711 9.4561 9.79385 9 10.2758 9H11.5234C11.7996 9 12.0472 9.15675 12.146 9.39415L13.8294 13.4389C14.0464 13.9604 14.8461 13.9657 15.0712 13.447L16.8335 9.38604C16.9346 9.15291 17.1799 9 17.4527 9H18.6474Z" fill="#54AEA8"/>
<circle cx="27.225" cy="22.725" r="1.725" fill="#54AEA8"/>
</g>
<defs>
<clipPath id="clip0_24_588">
<rect width="30" height="30" fill="white"/>
</clipPath>
</defs>
</svg>
