<svg width="40" height="38" viewBox="0 0 40 38" fill="none" xmlns="http://www.w3.org/2000/svg">
<path d="M0 0H40V28.0295L20.5 38L0 28.0295V0Z" fill="#E0E0E0"/>
<path d="M17.4685 16.3945L14.3279 15.6562L15.3592 6.9375H25.3318V10.0078H18.5818L18.1951 13.3945C18.3826 13.2852 18.699 13.1562 19.1443 13.0078C19.5974 12.8516 20.0974 12.7734 20.6443 12.7734C21.4881 12.7734 22.2342 12.9023 22.8826 13.1602C23.5388 13.4102 24.0935 13.7812 24.5467 14.2734C24.9998 14.7578 25.3396 15.3555 25.5662 16.0664C25.8006 16.7773 25.9178 17.5898 25.9178 18.5039C25.9178 19.2383 25.7967 19.9492 25.5545 20.6367C25.3201 21.3164 24.9568 21.9297 24.4646 22.4766C23.9803 23.0156 23.367 23.4453 22.6248 23.7656C21.8826 24.0781 21.0037 24.2344 19.9881 24.2344C19.2303 24.2344 18.492 24.1172 17.7732 23.8828C17.0545 23.6484 16.406 23.3125 15.8279 22.875C15.2576 22.4297 14.8045 21.8945 14.4685 21.2695C14.1404 20.6367 13.9803 19.9297 13.9881 19.1484H17.9607C17.9842 19.5625 18.0818 19.9219 18.2537 20.2266C18.4256 20.5312 18.656 20.7695 18.9451 20.9414C19.242 21.1055 19.5818 21.1875 19.9646 21.1875C20.3553 21.1875 20.6795 21.1094 20.9373 20.9531C21.1951 20.7969 21.3982 20.582 21.5467 20.3086C21.6951 20.0352 21.8006 19.7227 21.8631 19.3711C21.9256 19.0117 21.9568 18.6328 21.9568 18.2344C21.9568 17.8125 21.9099 17.4336 21.8162 17.0977C21.7303 16.7617 21.5896 16.4766 21.3943 16.2422C21.199 16 20.9451 15.8164 20.6326 15.6914C20.3279 15.5664 19.9607 15.5039 19.531 15.5039C18.9607 15.5039 18.5115 15.6016 18.1834 15.7969C17.8553 15.9922 17.617 16.1914 17.4685 16.3945Z" fill="#333333"/>
</svg>
