<svg width="40" height="60" viewBox="0 0 40 60" fill="none" xmlns="http://www.w3.org/2000/svg">
<path d="M0 0H40V44.2571L20.5 60L0 44.2571V0Z" fill="#FFC71C"/>
<path d="M17.6914 33.8164H19.6133C20.1055 33.8164 20.5078 33.7305 20.8203 33.5586C21.1406 33.3789 21.3789 33.1289 21.5352 32.8086C21.6914 32.4805 21.7695 32.0938 21.7695 31.6484C21.7695 31.3047 21.6953 30.9883 21.5469 30.6992C21.4062 30.4102 21.1875 30.1797 20.8906 30.0078C20.5938 29.8281 20.2148 29.7383 19.7539 29.7383C19.4414 29.7383 19.1367 29.8047 18.8398 29.9375C18.543 30.0625 18.2969 30.2422 18.1016 30.4766C17.9141 30.7109 17.8203 30.9961 17.8203 31.332H13.8594C13.8594 30.3633 14.125 29.5352 14.6562 28.8477C15.1953 28.1523 15.9023 27.6211 16.7773 27.2539C17.6602 26.8789 18.6094 26.6914 19.625 26.6914C20.8359 26.6914 21.8984 26.8789 22.8125 27.2539C23.7266 27.6211 24.4375 28.168 24.9453 28.8945C25.4609 29.6133 25.7188 30.5039 25.7188 31.5664C25.7188 32.1523 25.582 32.7031 25.3086 33.2188C25.0352 33.7344 24.6523 34.1875 24.1602 34.5781C23.668 34.9688 23.0898 35.2773 22.4258 35.5039C21.7695 35.7227 21.0508 35.832 20.2695 35.832H17.6914V33.8164ZM17.6914 36.7578V34.7891H20.2695C21.1211 34.7891 21.8984 34.8867 22.6016 35.082C23.3047 35.2695 23.9102 35.5508 24.418 35.9258C24.9258 36.3008 25.3164 36.7656 25.5898 37.3203C25.8633 37.8672 26 38.4961 26 39.207C26 40.0039 25.8398 40.7148 25.5195 41.3398C25.1992 41.9648 24.75 42.4922 24.1719 42.9219C23.5938 43.3516 22.918 43.6797 22.1445 43.9062C21.3711 44.125 20.5312 44.2344 19.625 44.2344C18.9141 44.2344 18.2031 44.1406 17.4922 43.9531C16.7812 43.7578 16.1328 43.4609 15.5469 43.0625C14.9609 42.6562 14.4883 42.1406 14.1289 41.5156C13.7773 40.8828 13.6016 40.1289 13.6016 39.2539H17.5625C17.5625 39.6133 17.6602 39.9414 17.8555 40.2383C18.0586 40.5273 18.3281 40.7578 18.6641 40.9297C19 41.1016 19.3633 41.1875 19.7539 41.1875C20.2383 41.1875 20.6484 41.0977 20.9844 40.918C21.3281 40.7305 21.5898 40.4805 21.7695 40.168C21.9492 39.8555 22.0391 39.5078 22.0391 39.125C22.0391 38.5469 21.9414 38.0859 21.7461 37.7422C21.5586 37.3984 21.2812 37.1484 20.9141 36.9922C20.5547 36.8359 20.1211 36.7578 19.6133 36.7578H17.6914Z" fill="white"/>
<path d="M28.0978 9.60349C28.0975 9.60349 28.0972 9.60349 28.0968 9.60349C27.7725 9.60349 27.509 9.86578 27.5078 10.1902C27.5078 10.1942 27.5076 10.2271 27.5064 10.286C27.4568 11.9639 26.0764 13.3137 24.3866 13.3137C22.6656 13.3137 21.2654 11.9135 21.2654 10.1925C21.2654 9.86716 21.0016 9.60349 20.6764 9.60349H20V18.4521H26.3768C26.5717 18.4521 26.7537 18.3558 26.8634 18.1949C28.5461 15.7273 28.6752 10.9803 28.685 10.2758C28.6856 10.2482 28.6859 10.2202 28.6859 10.1925C28.6858 9.86761 28.4227 9.6041 28.0978 9.60349V9.60349Z" fill="#FFF780"/>
<path fill-rule="evenodd" clip-rule="evenodd" d="M18.0969 9.49683C18.0969 8.44748 18.9507 7.59375 20 7.59375H20.0001C21.0494 7.59382 21.9031 8.44752 21.9031 9.49683C21.9031 9.74733 21.8544 9.98669 21.7661 10.2059C21.7377 10.2763 21.7052 10.3447 21.6689 10.4107C21.5794 10.5735 21.4668 10.7219 21.3354 10.8514C21.6387 12.2571 22.8917 13.3137 24.3868 13.3137C25.3104 13.3137 26.1415 12.9105 26.7135 12.2708C26.3916 11.9298 26.194 11.4703 26.194 10.9655C26.194 9.91614 27.0475 9.06241 28.0969 9.06241C29.1462 9.06241 30 9.91614 30 10.9655C30 11.8748 29.3587 12.6373 28.5046 12.8244C28.302 14.4957 27.8733 16.6049 26.9659 18.0392V19.7954C26.9659 20.1208 26.7023 20.3844 26.377 20.3844H13.623C13.2977 20.3844 13.0341 20.1208 13.0341 19.7954V18.039H13.0341C12.1267 16.6048 11.698 14.4958 11.4954 12.8246C10.6413 12.6375 10 11.8749 10 10.9655C10 9.91614 10.8537 9.06241 11.9031 9.06241C12.9524 9.06241 13.806 9.91614 13.806 10.9655C13.806 11.4703 13.6084 11.9299 13.2866 12.2709C13.8585 12.9105 14.6897 13.3137 15.6133 13.3137C17.1084 13.3137 18.3613 12.257 18.6645 10.8513C18.3143 10.506 18.0969 10.0263 18.0969 9.49683Z" fill="#FFF780"/>
<path d="M20 20.3844H26.3768C26.7021 20.3844 26.9658 20.1208 26.9658 19.7954V18.039H20V20.3844Z" fill="#FFF780"/>
</svg>
