<svg width="40" height="60" viewBox="0 0 40 60" fill="none" xmlns="http://www.w3.org/2000/svg">
<path d="M0 0H40V44.2571L20.5 60L0 44.2571V0Z" fill="#FFC71C"/>
<path d="M22.8359 26.9375V44H18.8867V31.3906L14.9961 32.5273V29.5273L22.4727 26.9375H22.8359Z" fill="white"/>
<path d="M28.0978 9.60349C28.0975 9.60349 28.0972 9.60349 28.0968 9.60349C27.7725 9.60349 27.509 9.86578 27.5078 10.1902C27.5078 10.1942 27.5076 10.2271 27.5064 10.286C27.4568 11.9639 26.0764 13.3137 24.3866 13.3137C22.6656 13.3137 21.2654 11.9135 21.2654 10.1925C21.2654 9.86716 21.0016 9.60349 20.6764 9.60349H20V18.4521H26.3768C26.5717 18.4521 26.7537 18.3558 26.8634 18.1949C28.5461 15.7273 28.6752 10.9803 28.685 10.2758C28.6856 10.2482 28.6859 10.2202 28.6859 10.1925C28.6858 9.86761 28.4227 9.6041 28.0978 9.60349V9.60349Z" fill="#FFF780"/>
<path fill-rule="evenodd" clip-rule="evenodd" d="M18.0969 9.49683C18.0969 8.44748 18.9507 7.59375 20 7.59375H20.0001C21.0494 7.59382 21.9031 8.44752 21.9031 9.49683C21.9031 9.74733 21.8544 9.98669 21.7661 10.2059C21.7377 10.2763 21.7052 10.3447 21.6689 10.4107C21.5794 10.5735 21.4668 10.7219 21.3354 10.8514C21.6387 12.2571 22.8917 13.3137 24.3868 13.3137C25.3104 13.3137 26.1415 12.9105 26.7135 12.2708C26.3916 11.9298 26.194 11.4703 26.194 10.9655C26.194 9.91614 27.0475 9.06241 28.0969 9.06241C29.1462 9.06241 30 9.91614 30 10.9655C30 11.8748 29.3587 12.6373 28.5046 12.8244C28.302 14.4957 27.8733 16.6049 26.9659 18.0392V19.7954C26.9659 20.1208 26.7023 20.3844 26.377 20.3844H13.623C13.2977 20.3844 13.0341 20.1208 13.0341 19.7954V18.039H13.0341C12.1267 16.6048 11.698 14.4958 11.4954 12.8246C10.6413 12.6375 10 11.8749 10 10.9655C10 9.91614 10.8537 9.06241 11.9031 9.06241C12.9524 9.06241 13.806 9.91614 13.806 10.9655C13.806 11.4703 13.6084 11.9299 13.2866 12.2709C13.8585 12.9105 14.6897 13.3137 15.6133 13.3137C17.1084 13.3137 18.3613 12.257 18.6645 10.8513C18.3143 10.506 18.0969 10.0263 18.0969 9.49683Z" fill="#FFF780"/>
<path d="M20 20.3844H26.3768C26.7021 20.3844 26.9658 20.1208 26.9658 19.7954V18.039H20V20.3844Z" fill="#FFF780"/>
</svg>
