<svg width="30" height="30" viewBox="0 0 30 30" fill="none" xmlns="http://www.w3.org/2000/svg">
<g clip-path="url(#clip0_24_589)">
<path d="M28.5644 8.58387C27.3398 5.98817 25.4004 3.80848 22.957 2.27919C19.5586 0.158093 15.5332 -0.515735 11.6309 0.386609C7.72851 1.28309 4.40624 3.65028 2.28515 7.04872C0.158195 10.4472 -0.515633 14.4667 0.386711 18.3749C1.28905 22.2772 3.65624 25.5995 7.04882 27.7206C9.43945 29.2147 12.1816 30.0057 14.9883 30.0057H15.1699C17.9648 29.9706 20.6836 29.162 23.0391 27.6737C23.7246 27.2401 23.9238 26.3378 23.4902 25.6522C23.0566 24.9667 22.1543 24.7675 21.4687 25.2011C19.5762 26.4022 17.3848 27.0526 15.1348 27.0819C12.8262 27.1112 10.5703 26.4725 8.60155 25.2479C5.86523 23.537 3.96093 20.8651 3.24023 17.7245C2.51952 14.5839 3.05859 11.3495 4.76952 8.61317C8.29687 2.97059 15.7617 1.24794 21.4043 4.77528C23.373 6.00575 24.9316 7.7577 25.916 9.84364C26.8769 11.8768 27.2519 14.1327 27 16.3593C26.9121 17.162 27.4863 17.8886 28.2949 17.9765C29.0976 18.0643 29.8242 17.4901 29.9121 16.6815C30.2226 13.91 29.7539 11.1093 28.5644 8.58387Z" fill="#54AEA8"/>
<circle cx="27.225" cy="22.725" r="1.725" fill="#54AEA8"/>
<path fill-rule="evenodd" clip-rule="evenodd" d="M15 6C15.8284 6 16.5 6.67157 16.5 7.5V14.9186L21.795 18.228C22.4975 18.6671 22.7111 19.5925 22.272 20.295C21.8329 20.9975 20.9075 21.2111 20.205 20.772L13.5 16.5814V7.5C13.5 6.67157 14.1716 6 15 6Z" fill="#54AEA8"/>
</g>
<defs>
<clipPath id="clip0_24_589">
<rect width="30" height="30" fill="white"/>
</clipPath>
</defs>
</svg>
